<svg xmlns="http://www.w3.org/2000/svg" viewBox="0 0 480.61 481.45"><path d="M386.39,346.5l0,0a179.65,179.65,0,0,0,19.1-33.09l66.34,6.49,4.4-16.42,4.4-16.42-60.77-27.58a180.93,180.93,0,0,0-.06-38.44l60.77-27.58-4.4-16.42-4.4-16.42-66.5,6.51a179.32,179.32,0,0,0-18.89-32.59l0,0L425.54,79.9l-12-12-12-12L346.8,95l0,0A178.33,178.33,0,0,0,313.4,75.78L320,8.83l-16.42-4.4L287.12,0l-27.8,61.26,1.34.36a180.62,180.62,0,0,0-41.7.23l2.33-.63L193.49,0,177.07,4.4,160.65,8.8l6.56,67,3-.82a179.19,179.19,0,0,0-36.18,20.69L79.49,56.56l-12,12-12,12,39.15,54.7.74-.73a178.81,178.81,0,0,0-20.52,36.37l1-3.7L8.86,160.69l-4.4,16.42L.06,193.53l61.25,27.79,1-3.77A181.2,181.2,0,0,0,62.25,263l-1-3.71L0,287.06l4.4,16.42L8.8,319.9l67-6.55L75,310.67a178.75,178.75,0,0,0,20.3,35.86l0,0L56.15,401.2l12,12,12,12,54.7-39.15,0,0a178.68,178.68,0,0,0,36.73,20.66l-3.83-1-6.56,66.94,16.42,4.4,16.42,4.4,27.8-61.25L217.44,419a181.62,181.62,0,0,0,44.51.29l-1.82.49,27.79,61.25,16.42-4.4,16.43-4.4-6.56-66.94-2,.53a179,179,0,0,0,34.6-19.77l0,0,54.7,39.15,12-12,12-12Zm-35.26-19.71-62.7-62.7a53.21,53.21,0,0,0,0-47.08v0h0l62.69-62.69A140,140,0,0,1,351.13,326.79ZM221.9,259.5a26.8,26.8,0,1,1,37.89,0A26.79,26.79,0,0,1,221.9,259.5ZM327.09,130.26,264.39,193a53.15,53.15,0,0,0-47.08,0L154.6,130.26A140,140,0,0,1,327.09,130.26Zm-196.53,24L193.26,217a53.21,53.21,0,0,0,0,47.08l-62.7,62.7A140,140,0,0,1,130.56,154.3Zm24,196.54,62.69-62.7h0a53.21,53.21,0,0,0,47.08,0l62.7,62.71A140.07,140.07,0,0,1,154.6,350.84Z"/></svg>
