<svg xmlns="http://www.w3.org/2000/svg" viewBox="0 0 329.52 664.57"><path d="M217.12 337.75V212.32s14.49 0 33.29 7.11c26.24 9.92 54.11 34.62 70.39 68.1V43.32c-22.7 43.34-42.96 62.29-70.64 66.89-18.37 3.05-33.05 1.44-33.05 1.44V94.51C222.31 20.5 303.71 0 303.71 0H25.8s81.4 20.5 86.6 94.51v17.15s-14.68 1.61-33.05-1.44c-27.68-4.59-47.93-23.55-70.64-66.89v244.2c16.28-33.48 44.15-58.18 70.39-68.1 18.8-7.11 33.29-7.11 33.29-7.11v125.43H0l164.76 326.82 164.76-326.82h-112.4zm-86.35 129l-37.81-69.38h37.81v69.38zm67.97-69.37h37.81l-37.81 69.38v-69.38z"/></svg>