<svg xmlns="http://www.w3.org/2000/svg" viewBox="0 0 416.62 562.26"><title>capitol_eagle_black</title><g id="eagle_outer_border" data-name="eagle outer border"><path d="M335.83,29.71,443.39,298.52,396.47,270l-15.64,19.81,27.81,66.73,95.92,71.25-11.47,2.08,4.17,18.77-43.1,6.6-31.62-14.94-89-20.16L425.67,538,239,382.28h49l-56.3-74.38-62.21.7L115.38,176.33,313.13,303.5l-93.07-87L335.83,29.71M337,16.45l-6.26,10.1L215,213.38l-2.59,4.19,3.6,3.36,44.47,41.55-141.82-91.2-16-10.29,7.21,17.61L164,310.87l1.54,3.77,4.08,0,59.18-.66L276,376.28h-53.5l12.72,10.61,186.63,155.7,43.3,36.12-34.73-44.42L348.66,429.73,420.57,446l31,14.66,1.66.78,1.81-.27,43.1-6.61,6.34-1-1.39-6.26-2.82-12.68,5.33-1,13.61-2.47L508.14,423l-94.6-70.26-25.81-62,10.16-12.88,42.39,25.75L455.64,313,449,296.29,341.4,27.48l-4.41-11Z" transform="translate(-102.62 -16.45)"/></g><g id="eaglie_fill" data-name="eaglie fill"><polygon points="352.54 417.7 327.45 421.54 349.77 432.09 357.07 430.97 347.8 424.12 352.54 417.7"/><path d="M402.84,362.65,372.19,289.1l22.73-28.78-.46-.3,36.09,24L334.82,45.59,319.17,70.84l38.11,114L313,80.89,301.14,100,344.35,203.5l-50.35-92-9.72,15.69,44,94-50.13-84.08-12.39,20L318,241.51,259.4,167.32l-10.86,17.52L305.08,256l-63.29-60.27-12.47,20.11,144.53,135L129.33,193.32l16.18,39.52,84,39.56-79.43-28.46,9.67,23.61,80.84,24.05-75.92-12,8.59,21,62.41-.7,66.94,88.42H257.22l116.2,96.94-59.87-76.59,111.3,25.21,61.21-9.37Zm45.66,37.23,22.61,19.59h-11.3Z" transform="translate(-102.62 -16.45)"/><polygon points="359.82 416.58 358.24 416.82 353.32 423.48 361.42 429.46 367.01 421.89 359.82 416.58"/><polygon points="357.07 430.97 357.07 430.97 357.07 430.97 357.07 430.97"/><polygon points="365.11 415.77 372.53 421.25 366.41 429.54 384.01 426.84 381.01 413.34 365.11 415.77"/></g></svg>