<svg xmlns="http://www.w3.org/2000/svg" viewBox="0 0 505.11 566.61"><g><polygon points="224.91 365.83 235.14 365.83 224.91 352.31 224.91 365.83"/><polygon points="224.91 264.33 260.24 287.05 224.91 254.04 224.91 264.33"/><path d="M461.51,505.34q1.41-1.51,2.79-3.06l0,0c.86-1,1.72-2,2.56-3,.08-.11.17-.21.26-.32,1.71-2,3.35-4.1,4.93-6.19l.3-.4c1.56-2.09,3.07-4.2,4.51-6.34l.26-.39c.67-1,1.32-2,2-3l.16-.24c.69-1.09,1.36-2.18,2-3.28.06-.09.11-.18.16-.27.6-1,1.17-2,1.74-3l.27-.47c1.21-2.15,2.35-4.3,3.43-6.47l.3-.59c1.06-2.14,2.06-4.29,3-6.43l.27-.62c.4-.94.79-1.87,1.17-2.81l.18-.43c.42-1.06.83-2.12,1.22-3.18.07-.18.13-.37.2-.55.33-.9.64-1.79.95-2.68l.22-.66c.35-1,.69-2.08,1-3.11l.09-.32c.28-.93.55-1.86.81-2.78l.2-.74c.27-1,.53-2,.77-3v0c.25-1,.47-2,.68-3,0-.26.1-.5.16-.75.17-.84.32-1.67.47-2.5,0-.17.07-.35.1-.52.16-1,.31-1.93.45-2.89l.09-.68c.1-.77.2-1.54.28-2.31,0-.23.05-.46.07-.69.09-.94.17-1.86.23-2.78l0-.47c0-.78.08-1.56.1-2.33,0-.24,0-.48,0-.73,0-.9,0-1.8,0-2.68-.1-6.23-.48-12.36-1-18.3a304,304,0,0,0-8.68-48.09l-.33-1.21c-2.66-9.92-4.81-15.9-4.81-15.9h0c-24.85-68.39-19.73-45.6-28.43-115.78S505.11,87.7,505.11,87.7L440.82,31.61s-69.9,46.58-143.89,28.48l89.4,223.42V187.86h56V416.29l9.34,6.93-9.34,1.7v10l2,9.17-2,.32v70.53A122.67,122.67,0,0,1,390,539.8l-3.62.7V443.62l-16.69-7.89-36-8.16v55.72l39.17,50.11L333.6,500.72V546.9c-18,1.35-32.88,2.73-53.27,11V456.27L224.91,410V557.92c-21.3-8.62-36.61-9.77-55.63-11.18l-.37,0V303.43l-52.29.58-3.71-9.08V539.32c-20.31-4.48-39.54-14.63-56-29.35V187.86H69.08l-6.6-16.11,25.07,16.11h25.36v16.31l56,36v-26.6L167.17,212l1.74-2.8v-21.3H182.1l27.12-43.77L193.39,132.4,174.8,146.13l7.32-21.92-18.81-13.44,23.11.18,7-22,7,22,23.11-.18-18.81,13.44,5.91,17.7,57.31-92.48a143.61,143.61,0,0,1-15.33-8.85c-87.6,58.14-188.26-9-188.26-9L0,87.7s57.12,61.48,48.41,131.66S44.82,266.75,20,335.14h0s-2.15,6-4.82,15.9c-.1.4-.21.8-.32,1.21a302.9,302.9,0,0,0-8.68,48.09c-.56,5.94-.93,12.07-1,18.3,0,.84,0,1.69,0,2.55,0,.25,0,.5,0,.75,0,.66,0,1.32.08,2,0,.24,0,.47,0,.72.06.88.12,1.76.21,2.66l0,.3c.08.81.18,1.61.28,2.42,0,.27.07.53.1.8.1.71.21,1.44.32,2.17,0,.21.07.43.11.64q.22,1.41.51,2.82l.09.44c.16.81.33,1.62.52,2.44,0,.26.11.51.17.76.19.82.39,1.64.6,2.47,0,.14.08.29.11.44.26,1,.54,2,.82,3,0,.15.1.31.14.47.25.84.51,1.69.78,2.54l.21.67c.32,1,.64,1.92,1,2.89l0,.08q.56,1.56,1.14,3.12c.06.14.12.29.17.43.35.9.7,1.8,1.07,2.7l.21.51c.86,2.09,1.78,4.17,2.76,6.26.06.12.11.24.17.35.45,1,.92,1.93,1.4,2.9l.15.29q1.61,3.19,3.4,6.36l.14.25c.59,1,1.19,2.07,1.8,3.1l0,0c1.28,2.14,2.63,4.27,4,6.38l.11.16c2.12,3.16,4.37,6.29,6.76,9.35l.06.07c2.41,3.09,5,6.11,7.65,9h0C60.51,523.85,84.8,539.87,114,545.68c1.33.27,2.64.52,3.92.76l1.07.2,3,.55.86.15c1.22.22,2.43.42,3.61.62l.77.13,2.81.45,1,.15,3.14.48.23,0,3.26.46.92.12,2.45.32.79.1,3,.36.63.07,2.38.27.87.09,2.46.25.41,0,2.75.27.78.07,2,.18.74.06,2.55.22.58,0,2,.16.8.07,1.94.14.62,0,2.19.16.32,0h0c19.52,1.45,34.48,2.58,56,11.67h0q3,1.26,6.17,2.74l.17.08q3.12,1.46,6.43,3.14l.38.19,2.92,1.51.51.27c1.09.57,2.2,1.17,3.32,1.78l.47.26,2.91,1.61.89.5c1.14.65,2.3,1.3,3.47,2,1.19-.69,2.35-1.35,3.5-2l.88-.5c1-.57,2-1.12,3-1.66l.38-.21,3.37-1.81.46-.24,3.07-1.58.23-.12c4.58-2.32,8.85-4.3,12.89-6h0c20.48-8.63,35-10.05,53.27-11.42v.13c7.67-.57,16.95-1.31,27.47-2.58,8.74-1,18.59-2.5,30.05-4.79A127.76,127.76,0,0,0,445.56,520l.35-.27q3.21-2.57,6.26-5.3l.33-.3c2-1.83,4-3.71,5.93-5.64l.23-.24c.92-.92,1.82-1.86,2.7-2.8Zm-54.2-359.21L388.72,132.4l-18.6,13.73,7.32-21.92-18.81-13.44,23.12.18,7-22,7,22,23.12-.18L400,124.21ZM100.42,111l7-22,7,22,23.11-.18-18.81,13.44L126,146.13,107.39,132.4,88.8,146.13l7.32-21.92L77.31,110.77Z" transform="translate(0 -11.86)"/><polygon points="333.6 266.21 333.6 286.97 355.74 340.11 386.33 362.83 386.33 279.54 343.58 253.57 333.6 266.21"/><polygon points="386.33 420.14 377.18 421.54 386.33 425.87 399.5 432.09 406.79 430.97 397.52 424.12 402.26 417.7 386.33 420.14"/><path d="M304.39,180.25,260.05,76.3,248.24,95.36l43.22,103.55-6-11-44.31-81-9.71,15.69,44,94-50.13-84.09-12.39,20,52.27,84.44L206.5,162.73l-10.86,17.52,56.55,71.18-27.28-26-36-34.3-12.46,20.11,48.48,45.3,14.72,13.75,81.33,76-40.63-26.18-9.64-6.2L154.4,239l-41.49-26.74L76.44,188.74l16.18,39.52,20.29,9.55,56,26.38,7.68,3.62-7.68-2.75-56-20.06-15.75-5.64L106.82,263l80.84,24-32.81-5.19-41.94-6.65-1.16-.18,8.58,21,48.58-.54,13.84-.16L224.91,351l24.77,32.73H204.33l116.19,96.94-40.19-51.42L260.65,404l19.68,4.46,53.27,12.07L372,429.26l61.21-9.38L350,358.07,333.6,318.84h0l-14.3-34.32,14.3-18.12h0L342,255.73l-.45-.3,36.09,24-89-221.6L281.93,41,266.28,66.25ZM418.22,414.88H406.91l-11.3-19.58Z" transform="translate(0 -11.86)"/><polygon points="416.73 421.89 409.54 416.58 407.96 416.82 403.05 423.48 411.14 429.46 416.73 421.89"/><polygon points="406.79 430.97 406.79 430.97 406.79 430.97 406.79 430.97"/><polygon points="430.73 413.34 414.83 415.77 422.25 421.25 416.13 429.54 433.73 426.84 430.73 413.34"/></g><g><path d="M282.94,25.12,390.5,293.93l-46.92-28.5-15.64,19.81L355.74,352l95.93,71.25-11.47,2.09,4.17,18.76-43.1,6.61-31.63-14.95-89-20.15,92.1,117.82L186.13,377.69h49l-56.3-74.37-62.22.69L62.48,171.75,260.24,298.91l-93.07-87L282.94,25.12m1.16-13.26L277.84,22,162.07,208.8,159.48,213l3.59,3.36,44.48,41.56L65.73,166.7l-16-10.29L56.93,174l54.14,132.26,1.55,3.78,4.07-.05,59.19-.66,47.19,62.34H169.58l12.71,10.61L368.93,538l43.29,36.12L377.5,529.7,295.77,425.15l71.9,16.29,31,14.66,1.66.79,1.81-.28,43.1-6.6,6.33-1-1.39-6.26-2.81-12.68,5.33-1,13.6-2.47-11.1-8.25-94.6-70.26-25.81-61.95L345,273.32l42.38,25.74,15.36,9.33-6.67-16.69L288.51,22.89l-4.41-11Z" transform="translate(0 -11.86)"/></g></svg>
