<svg id="eagle" xmlns="http://www.w3.org/2000/svg" viewBox="0 0 389.18 508.28"><title>capitol_eagle_white</title><path d="M504.56,427.81l-95.92-71.25-27.81-66.73L396.47,270l46.92,28.5L335.83,29.71,220.06,216.54l93.07,87L115.38,176.33,169.52,308.6l62.21-.7L288,382.28H239L425.67,538,333.56,420.16l89,20.16,31.62,14.94,43.1-6.6-4.17-18.77Zm-191-19.18,59.87,76.59-116.2-96.94h45.36l-66.94-88.42-62.41.7-8.59-21,75.92,12-80.84-24.05-9.67-23.61,79.43,28.46-84-39.56-16.18-39.52L373.85,350.88l-144.53-135,12.47-20.11L305.08,256l-56.54-71.17,10.86-17.52L318,241.51l-52.27-84.44,12.39-20,50.13,84.08-44-94L294,111.47l50.35,92L301.14,100,313,80.89l44.33,104-38.11-114,15.65-25.25L430.55,284l-36.09-24,.46.3L372.19,289.1l30.65,73.55,83.22,61.82-61.21,9.37Zm146.14,38.79h0l-7.3,1.12L430.07,438l25.09-3.84-4.75,6.42,9.28,6.85Zm-3.75-7.49,4.92-6.66,1.57-.24,7.19,5.31L464,445.91ZM469,446l6.12-8.29-7.42-5.48,15.89-2.44,3,13.51Z" transform="translate(-115.38 -29.71)"/><polygon points="333.13 370.18 344.43 389.76 355.74 389.76 333.13 370.18"/></svg>