<svg xmlns="http://www.w3.org/2000/svg" viewBox="0 0 505.11 566.43"><polygon points="224.91 365.83 235.14 365.83 224.91 352.31 224.91 365.83"/><polygon points="224.91 264.33 260.24 287.05 224.91 254.04 224.91 264.33"/><path d="M461.51 493.48q1.41-1.51 2.79-3.06h0c.86-1 1.72-2 2.56-3 .08-.11.17-.21.26-.32 1.71-2 3.35-4.1 4.93-6.19l.3-.4c1.56-2.09 3.07-4.2 4.51-6.34l.26-.39c.67-1 1.32-2 2-3l.16-.24c.69-1.09 1.36-2.18 2-3.28.06-.09.11-.18.16-.27.6-1 1.17-2 1.74-3l.27-.47c1.21-2.15 2.35-4.3 3.43-6.47l.3-.59c1.06-2.14 2.06-4.29 3-6.43l.27-.62c.4-.94.79-1.87 1.17-2.81l.18-.43c.42-1.06.83-2.12 1.22-3.18.07-.18.13-.37.2-.55.33-.9.64-1.79.95-2.68l.22-.66c.35-1 .69-2.08 1-3.11l.09-.32c.28-.93.55-1.86.81-2.78l.2-.74c.27-1 .53-2 .77-3h0c.25-1 .47-2 .68-3a3.24 3.24 0 0 1 .16-.75c.17-.84.32-1.67.47-2.5a3.18 3.18 0 0 1 .1-.52c.16-1 .31-1.93.45-2.89l.09-.68c.1-.77.2-1.54.28-2.31 0-.23.05-.46.07-.69.09-.94.17-1.86.23-2.78v-.47c0-.78.08-1.56.1-2.33v-3.41c-.1-6.23-.48-12.36-1-18.3a304 304 0 0 0-8.68-48.09l-.33-1.21c-2.66-9.92-4.81-15.9-4.81-15.9h0c-24.85-68.39-19.73-45.6-28.43-115.78s48.47-131.7 48.47-131.7L440.82 19.75s-69.9 46.58-143.89 28.48l89.4 223.42V176h56V404.43l9.34 6.93-9.34 1.7v10l2 9.17-2 .32v70.53A122.63 122.63 0 0 1 390 527.94l-3.62.7V431.76l-16.69-7.89-36-8.16v55.72l39.17 50.11L333.6 488.86V535c-18 1.35-32.88 2.73-53.27 11V444.41l-55.42-46.27V546.06c-21.3-8.62-36.61-9.77-55.63-11.18h-.37V291.57l-52.29.58-3.71-9.08V527.46c-20.31-4.48-39.54-14.63-56-29.35V176H69.08l-6.6-16.11L87.55 176h25.36v16.31l56 36v-26.6l-1.74-1.57 1.74-2.8V176H182.1l27.12-43.77-15.83-11.73L174.8 134.27l7.32-21.92L163.31 98.91l23.11.18 7-22 7 22 23.11-.18-18.81 13.44 5.91 17.7 57.31-92.48a143.09 143.09 0 0 1-15.33-8.85c-87.6 58.14-188.26-9-188.26-9L0 75.84S57.12 137.32 48.41 207.5 44.82 254.89 20 323.28h0s-2.15 6-4.82 15.9c-.1.4-.21.8-.32 1.21a302.89 302.89 0 0 0-8.68 48.09c-.56 5.94-.93 12.07-1 18.3v3.3a16.89 16.89 0 0 0 .08 2v.72c.06.88.12 1.76.21 2.66v.3c.08.81.18 1.61.28 2.42a7.28 7.28 0 0 0 .1.8c.1.71.21 1.44.32 2.17a3.57 3.57 0 0 0 .11.64q.22 1.41.51 2.82l.09.44c.16.81.33 1.62.52 2.44a3.34 3.34 0 0 0 .17.76c.19.82.39 1.64.6 2.47a2.57 2.57 0 0 0 .11.44c.26 1 .54 2 .82 3a2.26 2.26 0 0 0 .14.47c.25.84.51 1.69.78 2.54l.21.67c.32 1 .64 1.92 1 2.89v.08q.55 1.56 1.14 3.12c.06.14.12.29.17.43.35.9.7 1.8 1.07 2.7l.21.51c.86 2.09 1.78 4.17 2.76 6.26.06.12.11.24.17.35.45 1 .92 1.93 1.4 2.9l.15.29c1.07 2.13 2.21 4.25 3.4 6.36l.14.25c.59 1 1.19 2.07 1.8 3.1h0c1.28 2.14 2.63 4.27 4 6.38l.11.16c2.12 3.16 4.37 6.29 6.76 9.35l.06.07c2.41 3.09 5 6.11 7.65 9h0C60.51 512 84.8 528 114 533.82c1.33.27 2.64.52 3.92.76l1.07.2 3 .55.86.15c1.22.22 2.43.42 3.61.62l.77.13 2.81.45 1 .15 3.14.48h.23l3.26.46.92.12 2.45.32.79.1 3 .36.63.07 2.38.27.87.09 2.46.25h.41l2.75.27.78.07 2 .18.74.06 2.55.22H161l2 .16.8.07 1.94.14h.62l2.19.16h.32c19.52 1.45 34.48 2.58 56 11.67h0q3 1.26 6.17 2.74l.17.08q3.12 1.46 6.43 3.14l.38.19 2.92 1.51.51.27c1.09.57 2.2 1.17 3.32 1.78l.47.26 2.91 1.61.89.5c1.14.65 2.3 1.3 3.47 2l3.5-2 .88-.5c1-.57 2-1.12 3-1.66l.38-.21 3.37-1.81.46-.24 3.07-1.58.23-.12c4.58-2.32 8.85-4.3 12.89-6h0c20.48-8.63 35-10 53.27-11.42V541c7.67-.57 16.95-1.31 27.47-2.58 8.74-1 18.59-2.5 30.05-4.79a127.75 127.75 0 0 0 54.5-25.51l.35-.27q3.21-2.56 6.26-5.3l.33-.3c2-1.83 4-3.71 5.93-5.64l.23-.24c.92-.92 1.82-1.86 2.7-2.8Zm-54.2-359.21-18.59-13.73-18.6 13.73 7.32-21.92L358.63 98.91l23.12.18 7-22 7 22 23.12-.18L400 112.35ZM100.42 99.14l7-22 7 22L137.53 99 118.72 112.4 126 134.27l-18.61-13.73L88.8 134.27l7.32-21.92L77.31 98.91Z"/><polygon points="333.6 266.21 333.6 286.97 355.74 340.11 386.33 362.83 386.33 279.54 343.58 253.57 333.6 266.21"/><polygon points="386.33 420.14 377.18 421.54 386.33 425.87 399.5 432.09 406.79 430.97 397.52 424.12 402.26 417.7 386.33 420.14"/><path d="M304.39 168.39 260.05 64.44 248.24 83.5l43.22 103.55-6-11-44.31-81-9.71 15.69 44 94-50.13-84.09-12.39 20 52.27 84.44L206.5 150.87l-10.86 17.52 56.55 71.18-27.28-26-36-34.3-12.46 20.11 48.48 45.3 14.72 13.75 81.33 76-40.63-26.18-9.64-6.2L154.4 227.14 112.91 200.4 76.44 176.88 92.62 216.4 112.91 226l56 26.38 7.68 3.62-7.68-2.75-56-20.06L97.16 227.5l9.66 23.64 80.84 24L154.85 270l-41.94-6.65-1.16-.18 8.58 21 48.58-.54 13.84-.16 42.16 55.72 24.77 32.73H204.33l116.19 96.94-40.19-51.42-19.68-25.25 19.68 4.46 53.27 12.07L372 417.4 433.21 408 350 346.21 333.6 307h0l-14.3-34.32 14.3-18.12h0l8.4-10.67-.45-.3 36.09 24L288.64 46l-6.71-16.83L266.28 54.39ZM418.22 403H406.91l-11.3-19.58Z"/><polygon points="416.73 421.89 409.54 416.58 407.96 416.82 403.05 423.48 411.14 429.46 416.73 421.89"/><polygon points="406.79 430.97 406.79 430.97 406.79 430.97 406.79 430.97"/><polygon points="430.73 413.34 414.83 415.77 422.25 421.25 416.13 429.54 433.73 426.84 430.73 413.34"/><path d="M282.94 13.26 390.5 282.07l-46.92-28.5-15.64 19.81 27.8 66.76 95.93 71.25-11.47 2.09 4.17 18.76-43.1 6.61-31.63-15-89-20.15 92.1 117.82L186.13 365.83h49l-56.3-74.37-62.22.69L62.48 159.89 260.24 287.05l-93.07-87L282.94 13.26M284.1 0l-6.26 10.14L162.07 196.94l-2.59 4.2 3.59 3.36 44.48 41.56L65.73 154.84l-16-10.29 7.2 17.59L111.07 294.4l1.55 3.78 4.07-.05 59.19-.66 47.19 62.34H169.58l12.71 10.61L368.93 526.14l43.29 36.12L377.5 517.84 295.77 413.29l71.9 16.29 31 14.66 1.66.79 1.81-.28 43.1-6.6 6.33-1-1.39-6.26-2.81-12.68 5.33-1 13.6-2.47-11.1-8.25-94.6-70.26-25.81-62L345 261.46l42.38 25.74 15.36 9.33-6.67-16.69L288.51 11 284.1 0Z"/></svg>
