<svg xmlns="http://www.w3.org/2000/svg" viewBox="0 0 389.18 508.28"><path d="M389.18 398.1l-95.92-71.25-27.81-66.73 15.64-19.83 46.92 28.5L220.45 0 104.68 186.83l93.07 87L0 146.62l54.14 132.27 62.21-.7 56.27 74.38h-49l186.67 155.72-92.11-117.84 89 20.16 31.62 14.94 43.1-6.6-4.17-18.77zm-191-19.18l59.87 76.59-116.2-96.94h45.36l-66.94-88.42-62.41.7-8.59-21 75.92 12-80.84-24.05-9.67-23.61 79.43 28.46-84-39.56-16.18-39.52 244.54 157.6-144.53-135 12.47-20.11 63.29 60.23-56.54-71.17 10.86-17.52 58.6 74.2-52.27-84.44 12.39-20 50.13 84.08-44-94 9.75-15.68 50.35 92-43.21-103.47 11.86-19.11 44.33 104-38.11-114 15.65-25.25 95.68 238.36-36.09-24 .46.3-22.73 28.8 30.65 73.55 83.22 61.82-61.21 9.37zm146.14 38.79l-7.3 1.12-22.33-10.54 25.09-3.84-4.75 6.42 9.28 6.85zm-3.75-7.49l4.92-6.66 1.57-.24 7.19 5.31-5.63 7.57zm13.05 6.07l6.12-8.29-7.42-5.48 15.89-2.44 3 13.51z"/><path d="M333.13 370.18l11.3 19.58h11.31l-22.61-19.58z"/></svg>