<svg xmlns="http://www.w3.org/2000/svg" viewBox="0 0 750.09 741.08"><path d="M678.46 308.21V235.79a59 59 0 0 0-59-59H150.35a59 59 0 0 0-59 59V497.86a59 59 0 0 0 59 59H619.43a59 59 0 0 0 59-59V424.1H569.07v25.95a35.37 35.37 0 0 1-35.36 35.37H238.07a35.37 35.37 0 0 1-35.36-35.37V283.59a35.36 35.36 0 0 1 35.36-35.36H533.71a35.36 35.36 0 0 1 35.36 35.36v24.62Z"/><polygon points="359.57 262.06 338.46 262.06 360.78 481.25 381.89 481.25 359.57 262.06"/><polygon points="324.38 123.83 329.42 173.3 350.53 173.3 332.88 0 290.74 173.3 312.36 173.3 324.38 123.83"/><polygon points="532.62 356.32 503.52 417.96 460.96 320.77 424.59 481.25 446.12 481.25 467.33 387.67 502.81 468.68 545.93 377.32 750.09 377.32 750.09 356.32 532.62 356.32"/><polygon points="246.24 356.32 213.04 356.32 213.04 377.32 262.75 377.32 290.77 262.06 269.16 262.06 246.24 356.32"/><rect y="356.32" width="87.05" height="21"/><polygon points="395.13 611.25 390.97 570.38 369.86 570.38 387.24 741.08 425.93 570.38 404.39 570.38 395.13 611.25"/></svg>
