<svg xmlns="http://www.w3.org/2000/svg" viewBox="0 0 675.29 902.67"><path d="M337.64 0C151.17 0 0 202.07 0 451.34s151.17 451.33 337.64 451.33 337.65-202.06 337.65-451.33S524.12 0 337.64 0zm0 890.67C157.79 890.67 12 694 12 451.34S157.76 12 337.64 12s325.65 196.7 325.65 439.34-145.8 439.33-325.65 439.33z"/><path d="M337.64 44C175.47 44 44 226.37 44 451.34s131.47 407.33 293.64 407.33S631.29 676.3 631.29 451.34 499.82 44 337.64 44zm-80.23 704.79l98-276.07L152 560.94l249.76-425.45-89.31 270L538.33 315zM151.96 560.94z"/></svg>