<svg xmlns="http://www.w3.org/2000/svg" viewBox="0 0 675.29 902.67"><path d="M337.64,0C151.17,0,0,202.07,0,451.34S151.17,902.67,337.64,902.67,675.29,700.61,675.29,451.34,524.12,0,337.64,0Zm0,890.67C157.79,890.67,12,694,12,451.34S157.76,12,337.64,12,663.29,208.7,663.29,451.34,517.49,890.67,337.64,890.67Z"/><path d="M337.64,44C175.47,44,44,226.37,44,451.34S175.47,858.67,337.64,858.67,631.29,676.3,631.29,451.34,499.82,44,337.64,44ZM257.41,748.79l98-276.07L152,560.94h0L401.76,135.49l-89.31,270L538.33,315Z"/><polygon points="151.96 560.94 151.96 560.94 151.96 560.94 151.96 560.94"/></svg>
