<svg xmlns="http://www.w3.org/2000/svg" viewBox="0 0 675.29 987.41"><path d="M114.68 987.28a26.31 26.31 0 0 0 3.2-.2A26.31 26.31 0 0 1 114.68 987.28Z"/><path d="M104.68 984.93c-.63-.26-1.33-.57-2.08-.92C103.35 984.36 104.05 984.67 104.68 984.93Z"/><path d="M68.19 938.77c-.39-1-.81-2-1.25-3C67.38 936.78 67.76 937.78 68.19 938.77Z"/><path d="M101.43 983.46c-1.06-.52-2.21-1.13-3.41-1.82C99.22 982.33 100.37 982.94 101.43 983.46Z"/><path d="M56.16 914.87c-1.28-2.18-2.58-4.37-3.9-6.53C53.58 910.5 54.88 912.69 56.16 914.87Z"/><path d="M63.26 927.93c-1.61-3.21-3.37-6.49-5.22-9.77C59.89 921.44 61.65 924.72 63.26 927.93Z"/><path d="M49.27 903.52l-2-3.14Z"/><path d="M58 918.16c-.62-1.1-1.25-2.19-1.88-3.29C56.76 916 57.42 917.06 58 918.16Z"/><path d="M251.19 943.1l-5.69.77Z"/><path d="M546.76 979.06Z"/><path d="M546.44 978.91Z"/><path d="M139.42 765.54c.63-.58 1.25-1.17 1.86-1.76C140.67 764.37 140.05 765 139.42 765.54Z"/><path d="M245.5 943.87c-1.89.26-3.74.52-5.57.79C241.76 944.39 243.61 944.13 245.5 943.87Z"/><path d="M548.07 979.61h0Z"/><path d="M47.26 900.38c-.66-1-1.33-2.07-2-3.08C45.93 898.31 46.6 899.34 47.26 900.38Z"/><path d="M311.22 937.22c-14 1-26.82 2.12-38.61 3.37C284.4 939.34 297.24 938.21 311.22 937.22Z"/><path d="M520.27 967.87c-1.75-.66-3.51-1.3-5.27-1.94C516.76 966.61 518.52 967.21 520.27 967.87Z"/><path d="M23.09 853.25a32.16 32.16 0 0 1 1.07-4.74A32.16 32.16 0 0 0 23.09 853.25Z"/><path d="M62.29 808.92c.84-.49 1.68-1 2.53-1.45C64 807.94 63.13 808.43 62.29 808.92Z"/><path d="M52.35 815.25q3.45-2.4 7.17-4.68Q55.76 812.85 52.35 815.25Z"/><path d="M43.76 821.83c.73-.61 1.48-1.22 2.24-1.83C45.23 820.61 44.48 821.22 43.76 821.83Z"/><path d="M30.12 836.46a63.44 63.44 0 0 1 4.16-5.36A63.44 63.44 0 0 0 30.12 836.46Z"/><path d="M71 804.17l2.52-1.26Z"/><path d="M132.31 771.87l.54-.46Z"/><path d="M122.94 779.21c2.17-1.56 4.3-3.2 6.4-4.89C127.24 776 125.11 777.61 122.94 779.21Z"/><path d="M109.07 787.86c.61-.32 1.22-.64 1.83-1C110.29 787.22 109.68 787.54 109.07 787.86Z"/><path d="M105 789.87c.69-.32 1.39-.65 2.08-1C106.38 789.22 105.68 789.55 105 789.87Z"/><path d="M25.76 844.09c.19-.42.38-.83.58-1.24A10.56 10.56 0 0 1 25.76 844.09Z"/><path d="M32.59 878.74l-1.48-2.06Z"/><path d="M31.11 876.68l-2-2.74Z"/><path d="M22.76 857.26v0Z"/><path d="M35 882.16l-1.63-2.32Z"/><path d="M42.32 892.83c-1.3-1.94-2.57-3.81-3.79-5.59C39.76 889 41 890.89 42.32 892.83Z"/><path d="M27.05 841.52c.36-.68.73-1.36 1.13-2C27.76 840.16 27.41 840.84 27.05 841.52Z"/><path d="M549 979.89h0Z"/><path d="M24.76 846.68c.12-.34.25-.67.39-1C25 846 24.88 846.34 24.76 846.68Z"/><path d="M547.34 979.28h0Z"/><path d="M598 972.22l-.27.23Z"/><path d="M600.1 970.35l-.18.18Z"/><path d="M587.14 979.19l-.11 0Z"/><path d="M609.83 958.54c-.64 1-1.35 2-2.1 3C608.48 960.54 609.19 959.53 609.83 958.54Z"/><path d="M589.3 978.15l-.18.09Z"/><path d="M614.76 949.15Q614 951 613 952.9 614 951 614.76 949.15Z"/><path d="M593.76 975.51l-.32.21Z"/><path d="M591.53 976.91l-.28.16Z"/><path d="M595.92 973.94l-.32.24Z"/><path d="M658.86 859.41a22.68 22.68 0 0 1-.37 3.39A22.68 22.68 0 0 0 658.86 859.41Z"/><path d="M657.7 865.75c-.21.61-.44 1.19-.68 1.73C657.26 866.94 657.49 866.36 657.7 865.75Z"/><path d="M645.76 883.84c-1.09 1.62-2.13 3.21-3.12 4.75C643.6 887.05 644.64 885.46 645.76 883.84Z"/><path d="M654 872.36c-.21.26-.41.48-.59.67C653.56 872.84 653.76 872.61 654 872.36Z"/><path d="M627.38 915.9c-1.26 2.77-2.36 5.36-3.34 7.82C625 921.26 626.12 918.67 627.38 915.9Z"/><path d="M570.12 983.12Z"/><path d="M563.61 983Z"/><path d="M555.87 981.83h0Z"/><path d="M559.5 982.5h0Z"/><path d="M561.47 982.77Z"/><path d="M557.64 982.19h0Z"/><path d="M551.24 980.61"/><path d="M554.21 981.45h0Z"/><path d="M585 980.07l-.27.1Z"/><path d="M552.66 981h0Z"/><path d="M580.67 981.51l-.35.09Z"/><path d="M578.47 982.05l-.32.07Z"/><path d="M582.87 980.84l-.33.11Z"/><path d="M576.28 982.47h0Z"/><path d="M574.11 982.79Z"/><path d="M568 983.16Z"/><path d="M550 980.25Z"/><path d="M572.11 983h0Z"/><path d="M565.83 983.12Z"/><path d="M571.28 790c-2.22-1.42-4.47-2.9-6.72-4.43h0C566.81 787.08 569.06 788.61 571.28 790Z"/><path d="M632 821.44l-.19-.08c-.09 0-1.11-.42-2.9-1.15 1.79.73 2.81 1.12 2.9 1.15Z"/><path d="M554.82 778.7h0a280.57 280.57 0 0 1-24.46-20h0A280.57 280.57 0 0 0 554.82 778.7Z"/><path d="M144.51 760.61Z"/><path d="M657.28 849.86a40 40 0 0 0-4-8.18c0-.11-.12-.26-.22-.45.1.19.17.34.22.45A40 40 0 0 1 657.28 849.86Z"/><path d="M105.58 985.3c1.42.56 2.41.88 2.79 1l.33.12-.33-.12C108 986.18 107 985.86 105.58 985.3Z"/><path d="M43.76 821.83q-3.51 3-6.55 6.09A87.53 87.53 0 0 1 43.76 821.83Z"/><path d="M592.35 802.55c1.65.92 3.28 1.8 4.87 2.65C595.63 804.35 594 803.47 592.35 802.55Z"/><path d="M324.52 936.35q11.12-.69 23.13-1.25h0Q335.62 935.61 324.52 936.35Z"/><path d="M657.28 849.86a28.24 28.24 0 0 1 .87 3A28.94 28.94 0 0 0 657.28 849.86Z"/><path d="M576.76 793.42c5.41 3.35 10.65 6.39 15.62 9.13C587.38 799.81 582.14 796.77 576.76 793.42Z"/><path d="M608.4 810.94l4 1.95Z"/><path d="M652.65 840.55l.36.68Z"/><path d="M612.41 812.89c1.59.76 3.1 1.46 4.51 2.11Q614.76 814 612.41 812.89Z"/><path d="M651.87 839.19c.31.52.57 1 .78 1.36C652.44 840.17 652.18 839.71 651.87 839.19Z"/><path d="M623.3 817.86l1.87.81Z"/><path d="M527.62 970.72c6.32 2.52 12.56 5.22 18.67 8.12h0C540.18 975.94 533.94 973.24 527.62 970.72Z"/><path d="M658.67 855.61c-.13-.93-.3-1.86-.52-2.77C658.37 853.75 658.54 854.68 658.67 855.61Z"/><path d="M602 968.39h0c1.29-1.38 2.48-2.71 3.55-4C604.51 965.72 603.33 967.06 602 968.39Z"/><path d="M652.87 873.55l.22-.22Z"/><path d="M557.33 780.52l-2.51-1.82h0Z"/><path d="M12 451.34C12 208.7 157.76 12 337.64 12S663.29 208.7 663.29 451.34c0 127.57-40.31 242.44-104.67 322.7 3.25 2.38 6.51 4.65 9.74 6.83 65.8-82.36 106.93-199.53 106.93-329.53C675.29 202.07 524.12 0 337.64 0S0 202.07 0 451.34c0 130.5 41.43 248.07 107.68 330.48a104.3 104.3 0 0 0 10.16-6.32C52.76 695.17 12 579.68 12 451.34Z"/><path d="M564.56 785.55l-4.42-3Q562.36 784.11 564.56 785.55Z"/><path d="M119.06 781.91l1.23-.83Z"/><path d="M486 724.77c1.09-1.62 2-3 2.84-4C488 721.8 487.05 723.15 486 724.77Z"/><path d="M337.64 44C175.47 44 44 226.37 44 451.34c0 120.59 37.78 228.93 97.81 303.52a290.06 290.06 0 0 0 33.39-41.4l1.66-2.61 3.31-5.23 5.12 3.48 2.56 1.73.29.2.23.17.22.16.2.14h0c3 2.21 12.59 9.87 22 23.53l.09.13.54.79.06.09.05.07.38.57.64 1 .32.5c.61.94 1.11 1.74 1.58 2.51a118.13 118.13 0 0 1 10.11 21.13c.22.61.44 1.22.66 1.85l.05.16v.06a127.6 127.6 0 0 1 6.66 33.93c37.8-8.61 74.3-13 108.61-13a347.29 347.29 0 0 1 58.75 4.79c22.94 3.95 39.33 9.48 49.49 13.7 10.06-55.63 36.58-88 37.76-89.42l2.66-3.18 5.31-6.38 4.39 7 2.19 3.53c9.1 14.61 20.62 27.67 33.06 39.16 59.64-74.56 97.14-182.55 97.14-302.68C631.29 226.37 499.82 44 337.64 44ZM257.41 748.79l98-276.07L152 560.94h0L401.76 135.49l-89.31 270L538.33 315Z"/><path d="M226.26 805.32c0-1 0-1.9 0-2.84C226.21 803.42 226.21 804.37 226.26 805.32Z"/><path d="M206 738.61a.44.44 0 0 1-.08-.11c-.57-.83-1.15-1.63-1.72-2.41.57.78 1.15 1.58 1.72 2.41A.44.44 0 0 0 206 738.61Z"/><path d="M184.87 716.07h0l-.16-.12Z"/><path d="M530.36 758.68h0a224.11 224.11 0 0 1-18.85-19.52A224.11 224.11 0 0 0 530.36 758.68Z"/><path d="M184.66 715.92h0l-.18-.12-2.56-1.74 2.56 1.74Z"/><path d="M185.1 716.24h0l-.23-.17Z"/><path d="M207.57 741 207 740l-.21-.3.21.3Z"/><path d="M511.51 739.16A179.15 179.15 0 0 1 496 718l-1.1-1.76L496 718A179.15 179.15 0 0 0 511.51 739.16Z"/><path d="M493.81 714.51h0l-2.66 3.18c-.08.1-.26.31-.53.66.27-.35.45-.56.53-.65Z"/><path d="M219.62 765.68v0c-.21-.59-.41-1.17-.63-1.75.22.58.42 1.16.63 1.75Z"/><path d="M249.53 800.23l3.06-.59Z"/><path d="M288.23 794.07l2.33-.26Z"/><path d="M294.92 793.32l2.63-.27Z"/><path d="M281 795l.46-.07Z"/><path d="M264.52 797.5l2.85-.48Z"/><path d="M272.05 796.29l2.44-.38Z"/><path d="M320.76 791.34l2.06-.1Z"/><path d="M301.48 792.68l2.68-.24Z"/><path d="M314.29 791.69l2.45-.15Z"/><path d="M257.06 798.8l3-.54Z"/><path d="M307.92 792.14l2.63-.2Z"/><path d="M200.76 731.61c1.11 1.37 2.25 2.84 3.38 4.4C203.05 734.49 201.91 733 200.76 731.61Z"/><path d="M160 743.73l1.65-2Z"/><path d="M166.06 736.26l1-1.24Z"/><path d="M328.21 791h0Z"/><path d="M223.89 781.54q1 4.83 1.56 10.07C225.05 788.12 224.53 784.77 223.89 781.54Z"/><path d="M211.88 748.15c.83 1.52 1.66 3.12 2.47 4.79C213.54 751.27 212.76 749.67 211.88 748.15Z"/><path d="M479.55 735.07c1.14-2 2.23-3.79 3.26-5.44C481.76 731.28 480.69 733.08 479.55 735.07Z"/><path d="M214.35 752.94c.82 1.67 1.61 3.42 2.39 5.25C216 756.36 215.17 754.61 214.35 752.94Z"/><path d="M241.9 801.79l3-.61Z"/><path d="M234.14 803.49l2.56-.57Z"/><path d="M225.94 797c.12 1.81.22 3.65.27 5.53C226.16 800.61 226.06 798.76 225.94 797Z"/><path d="M216.76 758.19c.77 1.82 1.52 3.72 2.23 5.69C218.26 761.91 217.51 760 216.76 758.19Z"/><path d="M391.89 794.46l2.18.34Z"/><path d="M395.14 795l3.07.51Z"/><path d="M388.5 794l2.08.29Z"/><path d="M376.42 792.55l3.45.36Z"/><path d="M384.94 793.51l2.15.28Z"/><path d="M381.15 793.06l2.38.27Z"/><path d="M477.28 739.15c.77-1.42 1.53-2.8 2.27-4.08C478.81 736.35 478.05 737.73 477.28 739.15Z"/><path d="M466.86 761.53c.66-1.66 1.31-3.28 2-4.85C468.17 758.25 467.52 759.87 466.86 761.53Z"/><path d="M430.48 803.09q1.86.57 3.57 1.14Q432.34 803.66 430.48 803.09Z"/><path d="M437.37 805.35c2.12.75 4.08 1.47 5.86 2.16C441.45 806.82 439.49 806.1 437.37 805.35Z"/><path d="M471.47 750.75c.69-1.49 1.37-2.94 2.06-4.33C472.84 747.81 472.16 749.26 471.47 750.75Z"/><path d="M364.1 791.61l2.52.16Z"/><path d="M349.57 791l4.11.11Z"/><path d="M355.21 791.12l2.87.12Z"/><path d="M368.25 791.85l2.63.21C370 792 369.14 791.91 368.25 791.85Z"/><path d="M334.36 790.89Z"/><path d="M372.25 792.17l3.76.34Z"/><path d="M359.76 791.32l2.6.14Z"/><path d="M340.61 790.84h0Z"/><path d="M344.58 790.87c1.55 0 3.08 0 4.59.07C347.66 790.9 346.13 790.88 344.58 790.87Z"/><polygon points="151.96 560.94 151.96 560.94 151.96 560.94 151.96 560.94"/><path d="M657.28 849.86a40 40 0 0 0-4-8.18c0-.11-.12-.26-.22-.45l-.36-.68c-.21-.38-.47-.84-.78-1.36A45.58 45.58 0 0 0 632 821.44l-.19-.08c-.09 0-1.11-.42-2.9-1.15l-1.46-.6-2.24-.94-1.87-.81q-2.8-1.22-6.38-2.86l-4.51-2.11-4-1.95q-4.15-2-8.83-4.49l-2.35-1.25c-1.59-.85-3.22-1.73-4.87-2.65q-7.5-4.11-15.62-9.13c-1.8-1.11-3.62-2.25-5.45-3.44-2.22-1.42-4.47-2.9-6.72-4.43l-4.42-3c-.94-.65-1.87-1.32-2.81-2l-2.51-1.82a280.57 280.57 0 0 1-24.46-20 224.11 224.11 0 0 1-18.85-19.52 179.15 179.15 0 0 1-15.51-21.13l-1.1-1.76-1.09-1.76-2.66 3.19c-.08.09-.26.3-.53.65l-.48.61c-.36.46-.81 1.06-1.34 1.77-.79 1.07-1.75 2.42-2.84 4q-.56.81-1.14 1.71c-.63 1-1.31 2-2 3.15-1 1.65-2.12 3.45-3.26 5.44-.74 1.28-1.5 2.66-2.27 4.08s-1.46 2.72-2.21 4.18c-.51 1-1 2-1.54 3.09-.69 1.39-1.37 2.84-2.06 4.33-.88 1.9-1.76 3.87-2.63 5.93-.67 1.57-1.32 3.19-2 4.85-.88 2.22-1.75 4.5-2.6 6.87a225.57 225.57 0 0 0-9 32.81c-.67 3.48-1.29 7.06-1.83 10.73-1.17-.57-2.61-1.25-4.31-2s-3.67-1.57-5.9-2.44c-1.78-.69-3.74-1.41-5.86-2.16-1.06-.37-2.17-.74-3.32-1.12s-2.33-.76-3.57-1.14c-2.46-.76-5.1-1.53-7.91-2.29-7-1.9-15.12-3.74-24.3-5.32h-.06l-3.07-.51-1.07-.16-2.18-.34-1.31-.19-2.08-.29-1.41-.19-2.15-.28-1.41-.18-2.38-.27-1.28-.15-3.45-.36h-.41l-3.76-.34-1.37-.11-2.63-.21-1.63-.12-2.52-.16-1.71-.11-2.6-.14-1.71-.08-2.87-.12-1.53-.06-4.11-.11h-.4c-1.51 0-3-.06-4.59-.07H334.36c-1.88 0-3.78.07-5.71.13h-.44c-1.79.05-3.6.12-5.44.2l-2.06.1c-1.32.06-2.64.12-4 .2l-2.45.15-3.74.25-2.63.2-3.76.3-2.68.24-3.93.37-2.63.27c-1.44.15-2.9.32-4.36.49l-2.33.26q-3.33.4-6.74.85L281 795c-2.16.29-4.34.59-6.54.92l-2.44.38c-1.55.23-3.11.47-4.68.73l-2.85.48c-1.48.24-3 .5-4.45.76l-3 .54-4.47.84-3.06.59c-1.54.31-3.1.62-4.67 1l-3 .61c-1.72.36-3.46.75-5.2 1.13l-2.56.57q-3.9.88-7.88 1.83h0c0-1 0-1.9 0-2.84-.05-1.88-.15-3.72-.27-5.53s-.3-3.59-.49-5.34q-.6-5.23-1.56-10.07t-2.21-9.27c-.63-2.22-1.29-4.36-2-6.43a1 1 0 0 1-.05-.16v0c-.21-.59-.41-1.17-.63-1.75-.71-2-1.46-3.87-2.23-5.69s-1.57-3.58-2.39-5.25-1.64-3.27-2.47-4.79-1.67-3-2.5-4.34c-.5-.81-1-1.6-1.51-2.38l-.3-.48-.6-.91-.21-.3a3.28 3.28 0 0 0-.2-.31l-.57-.84h0a.44.44 0 0 1-.08-.11c-.57-.83-1.15-1.63-1.72-2.41-1.13-1.56-2.27-3-3.38-4.4-1.68-2.06-3.31-3.91-4.85-5.56a89.31 89.31 0 0 0-7.84-7.48l-1-.78c-.89-.72-1.58-1.25-2-1.59h0l-.23-.17h0l-.16-.12h0l-.18-.12L182 714.18l-1.66 2.61c0 .05-.29.46-.77 1.19l-1.1 1.64c-2.15 3.17-6.07 8.76-11.35 15.52l-1 1.24c-1.39 1.76-2.87 3.6-4.43 5.49l-1.65 2c-4.58 5.43-9.78 11.22-15.47 16.89h0q-1.58 1.57-3.21 3.14c-.61.59-1.23 1.18-1.86 1.76-2.13 2-4.33 4-6.57 5.87l-.54.46-3 2.45c-2.1 1.69-4.23 3.33-6.4 4.89-.88.64-1.77 1.26-2.65 1.87l-1.23.83c-2.68 1.79-5.41 3.45-8.16 5l-1.83 1c-.61.34-1.33.69-2 1s-1.39.67-2.08 1a73.53 73.53 0 0 1-7 2.81q-4.11 1.42-8.16 3l-2 .8c-4.91 2-9.73 4.12-14.38 6.42l-2.52 1.26c-2.08 1.07-4.14 2.17-6.14 3.3-.85.47-1.69 1-2.53 1.45s-1.86 1.1-2.77 1.65q-3.72 2.28-7.17 4.68c-.91.64-1.8 1.28-2.68 1.92-.52.38-1 .77-1.53 1.15-.73.56-1.44 1.12-2.15 1.68s-1.51 1.22-2.24 1.83q-3.51 3-6.55 6.09-1.53 1.57-2.92 3.18a63.44 63.44 0 0 0-4.16 5.36c-.69 1-1.34 2-1.94 3-.4.67-.77 1.35-1.13 2-.23.44-.46.88-.67 1.33s-.39.82-.58 1.24-.45 1-.65 1.57c-.14.34-.27.67-.39 1q-.33.91-.6 1.83a32.16 32.16 0 0 0-1.07 4.74 31.56 31.56 0 0 0-.32 4v.06a30.47 30.47 0 0 0 1.53 9.89l.15.48.31.41s.41.53 1.06 1.4l.74 1 .91 1.24c.5.67 1.06 1.43 1.67 2.27l2 2.74 1.48 2.06.78 1.1L35 882.29c1.12 1.59 2.3 3.29 3.53 5.08S41 891 42.33 893q1.45 2.17 3 4.47c.66 1 1.33 2 2 3.08s1.34 2.08 2 3.14q1.5 2.39 3 4.82c1.32 2.16 2.62 4.35 3.9 6.53.63 1.1 1.26 2.19 1.88 3.29 1.85 3.28 3.61 6.56 5.22 9.77 1.34 2.67 2.58 5.29 3.68 7.83.44 1 .86 2 1.25 3a73.78 73.78 0 0 1 2.85 8.42 57.62 57.62 0 0 0 2.66 7.75c.69 1.61 1.44 3.14 2.23 4.6a48.39 48.39 0 0 0 2.53 4.16 54.24 54.24 0 0 0 4.19 5.47l1.47 1.62a59.76 59.76 0 0 0 12 9.73c.64.4 1.27.77 1.89 1.12 1.2.69 2.35 1.3 3.41 1.82l1.17.55c.75.35 1.45.66 2.08.92l.9.37c1.42.56 2.41.88 2.79 1l.33.12a14.19 14.19 0 0 0 1.81.48 21.58 21.58 0 0 0 4.17.39 26.31 26.31 0 0 0 3.2-.2 29.55 29.55 0 0 0 6.48-1.61A44.06 44.06 0 0 0 137.18 978a76.64 76.64 0 0 1 11.24-7.84l1.23-.7a119 119 0 0 1 10.73-5.19l1.87-.78a226.2 226.2 0 0 1 30.31-9.64q4.8-1.2 10.16-2.39c10.59-2.34 22.9-4.61 37.22-6.71 1.83-.27 3.68-.53 5.57-.79l5.69-.77c5-.65 10.21-1.28 15.66-1.89l5.76-.62c11.79-1.25 24.63-2.38 38.61-3.37 4.32-.3 8.76-.6 13.3-.87q11.12-.69 23.13-1.25h0c.67 0 4.46.13 10.72.51l1.77.11c10.35.66 26.44 2 45.83 4.65l3.46.48a605.29 605.29 0 0 1 66.32 12.93l4.17 1.1q6.29 1.69 12.59 3.56l4.21 1.27q9.16 2.83 18.29 6.09c1.76.64 3.52 1.28 5.27 1.94q3.69 1.38 7.35 2.85c6.32 2.52 12.56 5.22 18.67 8.12h0l.12.06h0l.32.13h0l.49.2h.06l.66.25H548l.83.3h.06l1 .35h0l1.22.38h0l1.35.39h.07c.46.13.93.25 1.42.37h.13l1.5.35h.16l1.6.33h.17l1.74.29h.12q.95.15 1.92.27h0c.66.08 1.35.15 2 .21h.1c.66.06 1.34.1 2 .13h4.44c.61 0 1.23-.06 1.85-.11h.14c.63 0 1.27-.11 1.91-.19h.09c.64-.08 1.28-.17 1.93-.28h.24c.62-.1 1.25-.22 1.87-.35l.32-.07 1.85-.45.35-.09c.62-.17 1.24-.36 1.87-.56l.33-.11c.63-.2 1.27-.43 1.9-.67l.27-.1c.66-.26 1.32-.53 2-.83l.11 0c.66-.3 1.32-.62 2-1l.18-.09c.67-.34 1.33-.7 2-1.08l.28-.16c.63-.38 1.26-.77 1.89-1.19l.32-.21c.62-.42 1.24-.86 1.86-1.33l.32-.24c.62-.47 1.24-1 1.85-1.49l.27-.23c.63-.54 1.26-1.1 1.88-1.69l.18-.18c.65-.63 1.3-1.27 1.94-2h0c1.29-1.38 2.48-2.71 3.55-4 .77-.94 1.47-1.86 2.14-2.78s1.46-2 2.1-3a58.26 58.26 0 0 0 3.23-5.64q.93-1.86 1.74-3.75c1.62-3.77 2.92-7.63 4.34-11.82.44-1.33.9-2.68 1.38-4.07 1-3 2.16-6.12 3.52-9.54 1-2.46 2.08-5 3.34-7.82.56-1.2 1.14-2.43 1.76-3.7 1.24-2.55 2.62-5.23 4.18-8.07 1.16-2.14 2.43-4.36 3.81-6.69 1.65-2.79 3.48-5.75 5.48-8.85 1-1.54 2-3.13 3.12-4.75 2.18-3.26 4.55-6.68 7.14-10.29h0l.22-.22.29-.3c.18-.19.38-.41.59-.67a20.84 20.84 0 0 0 1.9-2.67 20.12 20.12 0 0 0 1.15-2.21c.24-.54.47-1.12.68-1.73a20.06 20.06 0 0 0 .79-3 22.68 22.68 0 0 0 .37-3.39 24.39 24.39 0 0 0-.19-3.82c-.13-.93-.3-1.86-.52-2.77A15 15 0 0 0 657.28 849.86Zm-8.58 19.39-.31.24-.23.32c-23.72 33-30.07 51.85-34.71 65.6-3.67 10.9-6.33 18.77-15.79 28.88-20.51 21.92-47.67 9.65-48.81 9.12-87.31-41.37-200-44.29-201.16-44.31h-.21C278.67 932.3 224.76 939 187.24 949c-32.21 8.59-46.17 18-53.87 24.25-13.47 11-22.48 7.58-22.82 7.44l-.36-.12c-.26-.08-26.23-7.94-33.35-34.92-7.42-28.11-43-75.53-47-80.84-8-26.19 30.66-52.77 70.17-66.47 40.14-13.91 75.22-63.33 83.52-75.72 8.55 7 36.83 34.14 36.71 84.16v.43a145.18 145.18 0 0 1-2 22.89l-.09.56.12.56c0 .1 1.76 10.84-16.32 20.08-3.38 1.73-7.4 3.45-12 5.44-23.46 10-58.92 25.22-84.6 71.92l-.18.38c-.85 2.27-8.1 22.39-.63 32.54 2.69 3.65 6.79 5.5 12.21 5.5h1.49a3 3 0 0 0 2.82-3.17h0a3 3 0 0 0-3.17-2.82h0c-4 .25-6.84-.75-8.52-3-4.65-6.32-.68-21.19 1.34-26.66 24.68-44.74 58.93-59.4 81.6-69.1 4.75-2 8.86-3.8 12.42-5.61 20-10.24 19.9-23 19.55-26a150.89 150.89 0 0 0 1.91-19.09c78.36-19.1 136-16.13 170.71-10.21 31.55 5.38 50.26 14.09 55.75 16.92v.07h0v.49c-.06 1-1 23.6 23.62 35.14 33.64 19.36 85.54 51.57 91 61.13l.15.25.19.23c2.68 3.13 9.4 13 8.28 21-.49 3.48-2.4 6.27-5.82 8.52a3 3 0 1 0 3.3 5c4.88-3.2 7.72-7.48 8.46-12.69 1.63-11.54-8-23.67-9.49-25.49-8.75-14.34-84.48-58.19-93.14-63.17l-.23-.12c-20.48-9.52-20.34-27.68-20.28-29.33 6.32-49.27 27.49-83.67 34.78-94.29 22.84 34.6 57.78 60.14 83.5 75.66a354.7 354.7 0 0 0 52.76 26.34A39.61 39.61 0 0 1 648 844.46l.2.39C658.32 860.77 649.08 868.92 648.7 869.25Z"/></svg>
