<svg id="Layer_18" data-name="Layer 18" xmlns="http://www.w3.org/2000/svg" viewBox="0 0 745 745"><title>imperial2</title><path d="M180.65,620.09C59.4,498.83,59.4,302.24,180.65,181A309.51,309.51,0,0,1,400,90V67.5a331.43,331.43,0,0,0-235.11,97.39C35,294.74,35,505.26,164.89,635.11A331.43,331.43,0,0,0,400,732.5V711A309.51,309.51,0,0,1,180.65,620.09Z" transform="translate(-27.5 -27.5)"/><path d="M188.93,611.07A297.54,297.54,0,0,0,400,698.5v-73a224.8,224.8,0,0,1-159.45-66c-88.07-88.06-88.07-230.84,0-318.9A224.8,224.8,0,0,1,400,174.5v-73a297.54,297.54,0,0,0-211.07,87.43C72.36,305.5,72.36,494.5,188.93,611.07Z" transform="translate(-27.5 -27.5)"/><path d="M314.09,485.91A121.09,121.09,0,0,0,400,521.5v-243a121.5,121.5,0,0,0-85.91,207.41Z" transform="translate(-27.5 -27.5)"/><path d="M482,77.74V248L597.53,132.5A330.18,330.18,0,0,0,482,77.74Z" transform="translate(-27.5 -27.5)"/><path d="M722.26,318a330.23,330.23,0,0,0-57.77-119.52L545,318Z" transform="translate(-27.5 -27.5)"/><path d="M667.5,597.53A330.18,330.18,0,0,0,722.26,482H552Z" transform="translate(-27.5 -27.5)"/><path d="M482,722.26a330.46,330.46,0,0,0,119.6-57.82L482,545Z" transform="translate(-27.5 -27.5)"/><path d="M725.09,330H516L657,189a334.76,334.76,0,0,0-49.88-49.12L470,277V27.5H330V62.69a346.73,346.73,0,0,1,82-7V744.27a346.73,346.73,0,0,1-82-7V772.5H470V516L611.06,656.93q12.42-10.21,24.05-21.82a336.45,336.45,0,0,0,25-28L523,470H772.5V330Z" transform="translate(-27.5 -27.5)"/><path d="M62.67,330H27.5V470H62.67A346.35,346.35,0,0,1,62.67,330Z" transform="translate(-27.5 -27.5)"/></svg>