<svg xmlns="http://www.w3.org/2000/svg" viewBox="0 0 745 745"><path d="M153.15,592.59C31.9,471.33,31.9,274.74,153.15,153.5a309.52,309.52,0,0,1,219.35-91V40a331.4,331.4,0,0,0-235.11,97.39C7.5,267.24,7.5,477.76,137.39,607.61A331.4,331.4,0,0,0,372.5,705V683.5A309.52,309.52,0,0,1,153.15,592.59Z"/><path d="M161.43,583.57A297.52,297.52,0,0,0,372.5,671V598a224.78,224.78,0,0,1-159.45-66c-88.07-88.06-88.07-230.84,0-318.9A224.83,224.83,0,0,1,372.5,147V74a297.52,297.52,0,0,0-211.07,87.43C44.86,278,44.86,467,161.43,583.57Z"/><path d="M286.59,458.41A121.13,121.13,0,0,0,372.5,494V251a121.5,121.5,0,0,0-85.91,207.41Z"/><path d="M454.5,50.24V220.5L570,105A330,330,0,0,0,454.5,50.24Z"/><path d="M694.76,290.5A330.24,330.24,0,0,0,637,171L517.5,290.5Z"/><path d="M640,570A330,330,0,0,0,694.76,454.5H524.5Z"/><path d="M454.5,694.76a330.46,330.46,0,0,0,119.6-57.82L454.5,517.5Z"/><path d="M697.59,302.5H488.5l141-141a334.76,334.76,0,0,0-49.88-49.12L442.5,249.5V0h-140V35.19a346.79,346.79,0,0,1,82-7V716.77a346.79,346.79,0,0,1-82-7V745h140V488.5L583.56,629.43q12.42-10.21,24.05-21.82a336.9,336.9,0,0,0,25-28L495.5,442.5H745v-140Z"/><path d="M35.17,302.5H0v140H35.17A346.35,346.35,0,0,1,35.17,302.5Z"/></svg>
