<svg xmlns="http://www.w3.org/2000/svg" viewBox="0 0 745 745"><g id="c3"><path d="M454.5 50.24V220.5L570 105A330 330 0 0 0 454.5 50.24Z"/><path d="M694.76 290.5A330.24 330.24 0 0 0 637 171L517.5 290.5Z"/><path d="M640 570A330 330 0 0 0 694.76 454.5H524.5Z"/><path d="M454.5 694.76a330.46 330.46 0 0 0 119.6-57.82L454.5 517.5Z"/><path d="M697.59 302.5H488.5l141-141a334.76 334.76 0 0 0-49.88-49.12L442.5 249.5V0h-140V41.27a339.52 339.52 0 0 1 70-7.27h6V711h-6a339.52 339.52 0 0 1-70-7.27V745h140V488.5L583.56 629.43q12.42-10.21 24.05-21.82a336.9 336.9 0 0 0 25-28L495.5 442.5H745v-140Z"/><path d="M41.27 302.5H0v140H41.27A340.75 340.75 0 0 1 41.27 302.5Z"/><path d="M152.94 592.06C31.69 470.8 31.69 274.2 152.94 152.94A309.53 309.53 0 0 1 372.5 62V40a331.4 331.4 0 0 0-235.11 97.39C7.5 267.24 7.5 477.76 137.39 607.61A331.4 331.4 0 0 0 372.5 705V683A309.53 309.53 0 0 1 152.94 592.06Z"/><path d="M213.05 532c-88.07-88.06-88.07-230.84 0-318.9A224.76 224.76 0 0 1 372.5 147V68a303.49 303.49 0 0 0-215.31 89.19C38.27 276.1 38.27 468.9 157.19 587.81A303.49 303.49 0 0 0 372.5 677V598A224.76 224.76 0 0 1 213.05 532Z"/><path d="M286.59 286.59A121.5 121.5 0 0 0 372.5 494V251A121.13 121.13 0 0 0 286.59 286.59Z"/></g></svg>
