<svg xmlns="http://www.w3.org/2000/svg" viewBox="0 0 745 745"><title>imperial</title><g id="c3"><path d="M482,77.74V248L597.53,132.5A330.18,330.18,0,0,0,482,77.74Z" transform="translate(-27.5 -27.5)"/><path d="M722.26,318a330.23,330.23,0,0,0-57.77-119.52L545,318Z" transform="translate(-27.5 -27.5)"/><path d="M667.5,597.53A330.18,330.18,0,0,0,722.26,482H552Z" transform="translate(-27.5 -27.5)"/><path d="M482,722.26a330.46,330.46,0,0,0,119.6-57.82L482,545Z" transform="translate(-27.5 -27.5)"/><path d="M725.09,330H516L657,189a334.76,334.76,0,0,0-49.88-49.12L470,277V27.5H330V68.77a339.22,339.22,0,0,1,70-7.27h6v677h-6a339.22,339.22,0,0,1-70-7.27V772.5H470V516L611.06,656.93q12.42-10.21,24.05-21.82a336.45,336.45,0,0,0,25-28L523,470H772.5V330Z" transform="translate(-27.5 -27.5)"/><path d="M68.77,330H27.5V470H68.77a340.64,340.64,0,0,1,0-140Z" transform="translate(-27.5 -27.5)"/><path d="M180.44,619.56C59.19,498.3,59.19,301.7,180.44,180.44A309.54,309.54,0,0,1,400,89.5v-22a331.43,331.43,0,0,0-235.11,97.39C35,294.74,35,505.26,164.89,635.11A331.43,331.43,0,0,0,400,732.5v-22A309.54,309.54,0,0,1,180.44,619.56Z" transform="translate(-27.5 -27.5)"/><path d="M240.55,559.45c-88.07-88.06-88.07-230.84,0-318.9A224.8,224.8,0,0,1,400,174.5v-79a303.52,303.52,0,0,0-215.31,89.19C65.77,303.6,65.77,496.4,184.69,615.31A303.52,303.52,0,0,0,400,704.5v-79A224.8,224.8,0,0,1,240.55,559.45Z" transform="translate(-27.5 -27.5)"/><path d="M314.09,314.09A121.5,121.5,0,0,0,400,521.5v-243A121.09,121.09,0,0,0,314.09,314.09Z" transform="translate(-27.5 -27.5)"/></g></svg>