<svg xmlns="http://www.w3.org/2000/svg" viewBox="0 0 750 750"><polygon points="571 184 445.97 184 375 345.26 375 345.26 375 345.26 304.03 184 179 184 179 566 303.63 566 303.63 443.12 375 566 375 566 446.38 443.12 446.38 566 571 566 571 184"/><polygon points="750 469.45 750 304.55 625 332.03 625 441.97 750 469.45"/><polygon points="125 550.6 0 632.39 0 750 137.46 750 224.49 617 125 617 125 550.6"/><polygon points="525.51 617 612.54 750 750 750 750 632.39 625 550.6 625 617 525.51 617"/><polygon points="295.19 750 454.81 750 425.57 617 324.43 617 295.19 750"/><polygon points="460.09 0 289.91 0 319.15 133 430.85 133 460.09 0"/><polygon points="625 223.41 750 141.61 750 0 628.25 0 541.21 133 625 133 625 223.41"/><polygon points="0 304.55 0 469.45 125 441.97 125 332.03 0 304.55"/><polygon points="208.79 133 121.75 0 0 0 0 141.61 125 223.41 125 133 208.79 133"/></svg>
