<svg xmlns="http://www.w3.org/2000/svg" viewBox="0 0 750 750"><path d="M571 184H445.97L375 345.26 304.03 184H179v382h124.63V443.12L375 566l71.38-122.88V566H571V184zM750 469.45v-164.9l-125 27.48v109.94l125 27.48zM125 550.6L0 632.39V750h137.46l87.03-133H125v-66.4zM525.51 617l87.03 133H750V632.39L625 550.6V617h-99.49zM295.19 750h159.62l-29.24-133H324.43l-29.24 133zM460.09 0H289.91l29.24 133h111.7L460.09 0zM625 223.41l125-81.8V0H628.25l-87.04 133H625v90.41zM0 304.55v164.9l125-27.48V332.03L0 304.55zM208.79 133L121.75 0H0v141.61l125 81.8V133h83.79z"/></svg>