<svg xmlns="http://www.w3.org/2000/svg" viewBox="0 0 619.35 583.94"><path d="M383.13,406.92C350.61,219.64,227.39,95.18,227.39,95.18s138.09,35.93,209.4,302.72"/><path d="M436.79,397.9s29.26,35.85-15.45,47.23c0,0-61.79,17.08-38.21-38.21"/><polygon points="308 205.33 308.01 205.33 308.01 205.33 308 205.33"/><path d="M283.68,173.73C250.41,217.52,216,285.89,192.89,392.29c-48.78,51.22,18.7,58.54,18.7,58.54,58.54,8.13,30.9-43.91,30.9-43.91,9.87-78.95,36.12-146,63.3-197.42-5.47-9.52-10.85-18.32-16-26.33Q286.69,178.33,283.68,173.73Z"/><path d="M330.24,167.38c28.64-45.11,52.89-70.21,52.89-70.21s-33.45,6.42-74.12,47.31Q319.9,155.18,330.24,167.38Z"/><path d="M506.27,9.34,498.46,0,488.13,6.44c-47,29.29-119.26,32.85-123.73,33H255c-4.41-.19-76.88-3.83-123.73-33L120.9,0l-7.81,9.34L19.23,121.54,0,144.54H88.68a26.46,26.46,0,0,1,12.1,5.55c7.62,6.36,10.77,17.36,9.38,32.69l-.11,1.25.09,1c0,.79.37,10.32-3.15,26.44-3.38,15.42-11.07,40.17-28.58,70.72-4.94,6.88-37.09,54.48-36.18,127.66.44,35.64,18.94,63.87,53.49,81.64a158.71,158.71,0,0,0,50.11,15.57l.4.05h.41a458.87,458.87,0,0,1,68.81,9.8C259,526.78,288.06,542,297.2,559.76l12.48,24.18,12.45-24.18c9.17-17.82,38.33-33.06,82.11-42.93a455,455,0,0,1,68.44-9.72h.41l.4-.05a158.71,158.71,0,0,0,50.11-15.57c34.55-17.77,53-46,53.49-81.64.91-73.18-31.24-120.78-36.18-127.66-17.51-30.55-25.2-55.3-28.58-70.72-3.53-16.13-3.18-25.66-3.15-26.44l.11-1.2-.13-1.05c-1.2-13.25,1-23.3,6.54-29.86a25.94,25.94,0,0,1,14.86-8.38h88.79l-19.23-23Zm23.51,121.18s-39.14,3.06-34.55,53.51c0,0-3.06,41.58,33.93,105.78,0,0,34.86,46.17,33.94,119.85S472,493.11,472,493.11s-134.76,6.74-162.31,60.24c-27.55-53.5-162.31-60.24-162.31-60.24s-90.19-9.78-91.11-83.46S90.2,289.81,90.2,289.81c37-64.2,33.93-105.78,33.93-105.78,4.59-50.45-34.55-53.51-34.55-53.51H30l93.86-112.2c52,32.41,130.85,35.16,130.85,35.16h110s78.88-2.75,130.85-35.16l93.86,112.2Z"/></svg>
