<svg xmlns="http://www.w3.org/2000/svg" viewBox="0 0 636.54 597.85"><path d="M507,5.24l7.81,9.34,93.86,112.2,19.23,23H539.13a26,26,0,0,0-14.89,8.36c-5.55,6.56-7.74,16.61-6.54,29.86l.13,1.05-.11,1.2c0,.78-.38,10.31,3.15,26.44,3.38,15.42,11.07,40.17,28.58,70.72,4.94,6.88,37.09,54.48,36.18,127.66-.44,35.64-18.94,63.87-53.49,81.64A158.71,158.71,0,0,1,482,512.28l-.4.05h-.41a455.31,455.31,0,0,0-68.45,9.72C369,531.92,339.83,547.16,330.66,565l-12.42,24.2L305.79,565c-9.14-17.76-38.18-33-81.75-42.85a458.55,458.55,0,0,0-68.8-9.8h-.41l-.4-.05a158.71,158.71,0,0,1-50.11-15.57c-34.55-17.77-53-46-53.49-81.64C49.92,341.91,82.07,294.31,87,287.43c17.51-30.55,25.2-55.3,28.58-70.72,3.52-16.12,3.18-25.65,3.15-26.44l-.09-1,.11-1.25c1.39-15.33-1.76-26.33-9.38-32.69a26.46,26.46,0,0,0-12.1-5.55H8.56l19.23-23,93.86-112.2,7.81-9.34,10.33,6.44c46.85,29.21,119.32,32.85,123.73,33H373c4.47-.19,76.76-3.75,123.73-33L507,5.24M507.85,0l-3,1.84L494.52,8.29c-46,28.67-117.6,32.25-121.69,32.43H263.61c-4.12-.19-75.85-3.85-121.7-32.43L131.58,1.84l-3-1.84-2.24,2.67L118.53,12,24.72,124.21l-19.23,23L0,153.77H96.93a22.77,22.77,0,0,1,9.88,4.62c6.55,5.47,9.22,15.31,8,29.26l-.12,1.24v.72l.08.91c0,1,.27,10.1-3.06,25.32s-10.84,39.37-28,69.42c-2.83,4-12.11,17.78-20.64,39.67a238.91,238.91,0,0,0-16.17,90.2c.46,37.21,19.71,66.66,55.66,85.15a163.6,163.6,0,0,0,51.51,16h1A457.45,457.45,0,0,1,223.23,526c21.35,4.84,39.12,10.93,52.82,18.11,13.26,7,22.1,14.58,26.27,22.67L314.76,591l3.56,6.9,3.56-6.9,12.36-24.12c4.18-8.12,13.06-15.77,26.38-22.73,13.76-7.19,31.61-13.29,53.06-18.13a455.48,455.48,0,0,1,67.77-9.62h1a163.6,163.6,0,0,0,51.51-16c36-18.49,55.2-47.94,55.66-85.15A238.91,238.91,0,0,0,573.49,325c-8.53-21.89-17.81-35.71-20.64-39.67-17.2-30-24.74-54.33-28-69.42s-3.1-24.35-3.06-25.33l.09-1.1v-.84l-.12-1c-1.09-12.11.8-21.15,5.61-26.85a22.14,22.14,0,0,1,12.17-7h97l-5.5-6.56-19.22-23L517.9,12l-7.81-9.34L507.85,0Z"/><path d="M203.89,398.06c23.51-108.41,59-176.3,90.79-218.09l19,30.67C287.33,260,258.87,329.35,248.56,411.85l.27,1.49c.11.21,11.43,21.89,3.31,33.49-4.72,6.75-15.37,9-31.73,6.75-.27,0-27.68-3.17-33.21-18.26-3.37-9.21,2-21.34,16-36.07"/><path d="M291.73,175.52"/><path d="M503.79,189.27c-4.59-50.45,34.55-53.51,34.55-53.51H598L504.09,23.56C452.12,56,373.24,58.72,373.24,58.72h-110S184.36,56,132.39,23.56L38.53,135.76H98.14s39.14,3.06,34.55,53.51c0,0,3.06,41.58-33.93,105.78,0,0-34.86,46.17-33.94,119.85s91.11,83.45,91.11,83.45,134.76,6.74,162.31,60.24c27.55-53.5,162.31-60.24,162.31-60.24s90.19-9.78,91.11-83.46-33.94-119.84-33.94-119.84C500.73,230.85,503.79,189.27,503.79,189.27ZM316.65,215.76c-25.64,48.54-52.92,116-63,196,2.09,4.21,11.65,25.06,2.62,38-4.52,6.47-12.83,9.73-24.75,9.73a84.7,84.7,0,0,1-11.69-.88c-1.18-.12-30.71-3.53-37.29-21.5-4-11,1.56-24.73,16.64-40.72,13.39-61.49,31.71-115.3,54.49-159.91a388.63,388.63,0,0,1,38.09-60.89c-31.06-46.37-57.28-73.06-57.56-73.34l-6.4-6.47,8.8,2.29c1.43.37,35.19,9.51,78.16,51l2-2.06c40.33-40.12,73.09-46.77,74.47-47L399,98.53l-5.48,5.67c-.27.28-25.12,26.22-53.84,71.81h0a438.86,438.86,0,0,1,45.07,66.09c25.44,45.28,46.6,99.09,62.9,160,2.14,2.76,13.13,17.91,8.52,31.9-3,9-11.58,15.33-25.63,18.91a80.41,80.41,0,0,1-19.35,2.44c-8.29,0-17.27-1.7-22.64-7.83-6.44-7.36-6.24-19.36.57-35.64-14.38-82.17-43.64-146.76-72.45-196.14"/><path d="M383.78,107.43c-12.19,4.48-36.39,16-63.85,43.44l-1.69,1.67q9.18,9.17,18,19.41h0A538.11,538.11,0,0,1,383.78,107.43Z"/><path d="M394,413.14c-6.29,14.74-6.86,25.2-1.7,31.1C402,455.31,429,448,429.23,448c12.33-3.13,19.76-8.38,22.15-15.62,4.15-12.52-7.85-27.47-8-27.62l-.48-.94C406.24,266.5,351.57,191.91,312.16,153.51c-29.12-28.38-54.27-41.62-67.32-47.16a622.24,622.24,0,0,1,58.89,78.37c31.94,49.95,73.55,129.87,90.42,227"/><polygon points="291.72 175.51 291.72 175.51 291.72 175.51 291.72 175.51"/><path d="M314.73,149h0"/></svg>
