<svg xmlns="http://www.w3.org/2000/svg" viewBox="0 0 416.5 504.49"><path d="M254,377.53a126.26,126.26,0,0,0-6.12-39L303.37,301a75.49,75.49,0,1,0-2.88-129.14L235,118a92.5,92.5,0,1,0-114.4,63.46c1.51.43,3,.82,4.57,1.18L113,251.27c-63.45,7-113,60.92-113,126.22a127,127,0,0,0,254,0ZM341,196a39.5,39.5,0,1,1-25.73,69.45l-11.74,13.64,11.74-13.64a39.47,39.47,0,0,1-4.27-55.6c.65-.75,1.32-1.48,2-2.18L300.27,195,313,207.66A39.23,39.23,0,0,1,341,196ZM146.1,149h-.33a56.55,56.55,0,1,1,.4,0v18Zm15.45,34.65A93,93,0,0,0,218,150.53l57.54,47.35a75.39,75.39,0,0,0,1.35,77.47l-45,30.48a126.81,126.81,0,0,0-82.51-53.3ZM36,377.53a91.11,91.11,0,0,1,91-91h1l.21-18-.2,18a91.48,91.48,0,0,1,81.51,52.67l16.36-7.61-16.33,7.59A91,91,0,1,1,36,377.53Z"/></svg>
