<svg xmlns="http://www.w3.org/2000/svg" viewBox="0 0 499.58 499.57"><path d="M428.25 236.93c-2-93.2-75.78-169-168.15-174.32A260 260 0 0 1 250 0h-.21A259.19 259.19 0 0 1 239.7 62.57C147.21 67.79 73.3 143.68 71.34 237A259.67 259.67 0 0 1 0 249.8 258.82 258.82 0 0 1 72.67 263C83 345.72 150.08 411 233.58 418.57a259.22 259.22 0 0 1 16.21 81 258.92 258.92 0 0 1 16.29-81c83.38-7.59 150.39-72.75 160.79-155.3A259 259 0 0 1 499.58 250v-.22A259.67 259.67 0 0 1 428.25 236.93ZM88.79 269A260.9 260.9 0 0 1 227.05 402.7 163.86 163.86 0 0 1 88.79 269Zm-2.21-37.59C91.16 150.64 154.68 85.36 234.72 78A260.68 260.68 0 0 1 86.58 231.44ZM272.63 402.69A260.89 260.89 0 0 1 410.79 269.25 163.9 163.9 0 0 1 272.63 402.69ZM265.09 78C345 85.48 408.39 150.67 413 231.36A260.76 260.76 0 0 1 265.09 78Z"/></svg>
