<svg xmlns="http://www.w3.org/2000/svg" viewBox="0 0 499.57 499.55"><path d="M499.57,249.79a259.3,259.3,0,0,1-71.33-12.87c-2-93.2-75.78-169-168.15-174.32A259.93,259.93,0,0,1,250,0h-.21A259.27,259.27,0,0,1,239.7,62.58C147.21,67.79,73.3,143.68,71.34,237A259.28,259.28,0,0,1,0,249.79,259.17,259.17,0,0,1,72.67,263C83,345.71,150.08,411,233.58,418.55a259.22,259.22,0,0,1,16.21,81h0a258.92,258.92,0,0,1,16.29-81c83.38-7.59,150.39-72.75,160.79-155.3A259.38,259.38,0,0,1,499.57,250v-.22ZM234.7,78A260.73,260.73,0,0,1,86.56,231.44C91.14,150.64,154.66,85.35,234.7,78ZM88.7,269A260.9,260.9,0,0,1,227.05,402.7,163.87,163.87,0,0,1,88.79,269Zm161.09,60.8a80,80,0,1,1,80-80A80,80,0,0,1,249.79,329.79Zm22.84,72.9A261,261,0,0,1,410.79,269.24,163.9,163.9,0,0,1,272.63,402.69ZM265.09,78C345,85.47,408.39,150.66,413,231.35A260.77,260.77,0,0,1,265.09,78Z"/></svg>
