<svg xmlns="http://www.w3.org/2000/svg" viewBox="0 0 471.06 500"><g id="Layer_4_copy" data-name="Layer 4 copy"><path d="M199.73 273.16c.79 1.36 1.58 2.72 2.36 4.1 26.64-50.68 62.6-99.47 107-145.18A805.4 805.4 0 0 1 421.71 36.2q5.67-4 10.86-7.49c-14.31 15.46-32.82 38.71-51.31 71.1C341.9 168.76 295 293.34 294.41 496h-32v4h35.93C298.41 104.79 471.06 0 471.06 0S294.25 95.37 199.73 273.16Z"/><path d="M24.76 89.22a653.32 653.32 0 0 1 103.5 93c37.83 42.21 68 87.46 89.57 134.49 26.4 57.47 40.06 117.77 40.63 179.32H133.74C133.18 331 98 223 68.48 161.35c-15.83-33.06-31.58-56.57-43.72-72.1M0 67.86S129.74 177.64 129.74 500H262.48C262.48 221.56 0 67.86 0 67.86Z"/></g></svg>
