<svg xmlns="http://www.w3.org/2000/svg" viewBox="0 0 418.5 399"><path d="M282.15 169 257.5 127a13.39 13.39 0 0 0-11-3c-7 1-57.49 40.24-57.49 40.24h0C186 152.5 174.5 146 174.5 146c-41-27-25-104-25-104l-58 32s-14 5-19 28C67.62 124.5 60.82 233.7 0 399L199.2 188.74ZM91.5 241c1-10 7-26 7-26 12-36 3.56-103.82 3.56-103.82L120.5 101s-2 7-2 37 31 53 31 53Z"/><line x1="134.5" y1="318" x2="168.5" y2="286"/><path d="M391.5 118c-10.8 2.7-88.78 45.06-104.3 53.53h0l-6.4 3h0l-79 18.81L7.5 398.31C50.5 362.1 133.67 367 154.5 367c23 0 29-12 29-12s11-12 27-30a90.88 90.88 0 0 0 20-39 17.49 17.49 0 0 1-15 7c-6.37-4.25-8-14.69-8-23.56L376.5 165a31.9 31.9 0 0 0 14-14l7.2-12.84 2.71-4.83a12 12 0 0 0 1.43-7.62C401.21 121.44 399 116.13 391.5 118Zm-240 205c-7-8-17-5-17-5l34-32c1 24 13 37 13 37C172.5 330 158.5 331 151.5 323Z"/><polygon points="406.5 0 263.09 126.66 285.94 165.41 418.5 35 418.5 0 406.5 0"/></svg>
