<svg xmlns="http://www.w3.org/2000/svg" viewBox="0 0 469.22 470.73"><path d="M264,34,161,68S123,0,77,0L88,34S78,62,0,138c0,0,29,14,92-19,0,0,35-22,46-32,0,0,46,16,86,10s95-30,95-30,22-7,0-18S275,30,264,34Z"/><path d="M234,107,62,156s-24,12,0,23l29,11s8,7,27,0,178-49,178-49,27-6,5-17l-38-17S255,101,234,107Z"/><path d="M310,154s-11-7-24,6-16,15-40,20S126,215,31,232c0,0-22,8,0,22l20,9s24,11,56-6,107-41,138-45c0,0,17-5,12,14s-5,99-5,99,3,99,113,144c0,0,35,5,86-2,0,0,41-21,0-43,0,0-31-17-36-44,0,0-3-15-13-13,0,0-14,0-17,18,0,0-3,19-3,33,0,0,.19,19.11-18,9,0,0-32-12-51-49,0,0-15-19-17-88,0,0-6-74,53-110C349,180,338,163,310,154Z"/><path d="M430,387"/><path d="M256,440s17,1,31-17c0,0-35-7-69-24,0,0-33-15-50-31,0,0-5-7,2-11s24-5,24-5,23,1,32-6c0,0,9-15-3-17,0,0-15-4-40,3,0,0,3-5,14-8,0,0,11-1,27-8,0,0,11-5,9-15,0,0-2-10-15-14,0,0-11-3-27,17,0,0-12,13-20,19a118.2,118.2,0,0,1-1-39s2-18-7-22c0,0-4-4-15-5,0,0-14-3-11,17,0,0,7,20,5,56,0,0,0,7-9,11,0,0-6.66,6-46.33,12.49C78.28,354.87,67,363.49,69,371c3,11,13,11,13,11s13,4,25-3c0,0,2-3,9-4s2,8,2,8-15,18-28,26-10,14-10,14,6,5,18-3,33-19,43-30a159.36,159.36,0,0,1,2,42s0,6-6,16a7.9,7.9,0,0,0,5,7c5,2,8,8,8,8s3,3,6,0,4-6,8-10a15.32,15.32,0,0,0,4-10c0-6-2-23,0-43,0,0,15,2,47,33,0,0,5,6,12,5C227,438,244,438,256,440Z"/><path d="M215.89,432.05"/><path d="M216,432"/><path d="M98.5,311.5s9-6,17,0a41.84,41.84,0,0,1,9,11s4,8,0,13-12,7-12,7-3,1-7-3a59.69,59.69,0,0,0-11-10c-6-4-1-11-1-11S96.5,314.5,98.5,311.5Z"/></svg>
