<svg xmlns="http://www.w3.org/2000/svg" viewBox="0 0 480.01 291.34"><path d="M120.2,218.3a146,146,0,0,0,272.45-73c0-1.94,0-3.86-.12-5.78-39,17.08-86.6,33.87-137.35,48.38C207.21,201.61,160.5,212.06,120.2,218.3Z"/><path d="M384.47,113,388.6,111a146,146,0,0,0-283.49,70q1.41,5.69,3.27,11.26c38.59-4.94,88.29-15.6,139.42-30.22C299.76,147.23,348.3,129.79,384.47,113ZM216.15,60.8h-29v29h-8v-29h-29v-8h29v-29h8v29h29Z"/><path d="M479.65,66.37c-4.24-14.85-45.77-17.24-106.47-8.82q2.65,3.81,5,7.7c.64,1,1.25,2.09,1.86,3.15,38.31-4.15,63.31-2,66,7.56,5.51,19.27-82.3,61.27-196.12,93.81s-210.57,43.3-216.08,24c-2.89-10.12,20-26.47,58.79-44.47v-4c0-2.85.09-5.75.25-8.67-60,26-96.94,51.32-92.52,66.76,7.15,25,120.25,14.65,252.6-23.18S486.83,91.4,479.65,66.37Z"/></svg>
