<svg xmlns="http://www.w3.org/2000/svg" viewBox="0 0 479.99 292.1"><title>mission</title><path d="M101 135.69v.2l-.15 2.48v.24c0 .74-.07 1.47-.1 2.19v9.25a145.15 145.15 0 0 0 9.06 46.81c38.7-5 88.23-15.67 139.13-30.22 54.06-15.46 103.89-33.5 140.6-50.9A145.28 145.28 0 0 0 373.3 73.27l-1-1.63-.3-.59c-.18-.29-.35-.59-.53-.89h0c-.48-.8-1-1.59-1.48-2.38l-1-1.46-.52-.78c-.42-.64-.85-1.28-1.3-1.92L367 63.4l-1.51-2.14-.1-.15c-.37-.5-.73-1-1.09-1.51a146.8 146.8 0 0 0-36.18-34.71c-2.33-1.56-4.7-3.07-7.12-4.5q-1.82-1.08-3.66-2.1c-2.47-1.37-5-2.67-7.52-3.89A146.07 146.07 0 0 0 101.14 133.86C101.09 134.47 101.05 135.05 101 135.69Zm49.13-82.14h29v-29h8v29h29v8h-29v29h-8v-29h-29Z"/><path d="M254.06 184.8c-48.41 13.84-95.51 24.34-135.94 30.56a146 146 0 0 0 274.51-69.31q0-5.07-.35-10.05C353.15 153.22 305.25 170.17 254.06 184.8Z"/><path d="M479.63 67.12c-4.35-15.21-47.8-17.34-110.92-8.19 2.15 3 4.19 6.07 6.07 9.15.31.52.61 1 .91 1.56 40.78-4.79 67.57-2.81 70.39 7.07C451.59 96 363.78 138 250 170.52s-210.57 43.3-216.08 24c-3-10.46 21.52-27.62 62.76-46.33v-2.14c0-3.42.13-6.93.37-10.44C34.57 162.24-4.16 188.35.36 204.14c7.15 25 120.25 14.65 252.6-23.18S486.81 92.15 479.63 67.12Z"/></svg>
