<svg xmlns="http://www.w3.org/2000/svg" viewBox="0 0 420.5 464.5"><path d="M420.5,9.5A9.5,9.5,0,0,0,411,0H9.5a9.5,9.5,0,0,0,0,19h.25l-1,99.5s0,124.92,130.06,158.68h0c2.94.77,5.95,1.48,9,2.15,23.51,6.15,29.44,12.67,29.44,12.67v58s-.14.26-.41.72c-9.82,2.92-16,7.12-16,11.78a4.34,4.34,0,0,0,0,.51C96.41,369.75,49.75,389.36,49.75,412.5c0,28.72,71.86,52,160.5,52s160.5-23.28,160.5-52c0-23.14-46.66-42.75-111.16-49.49a4.34,4.34,0,0,0,0-.51c0-4.66-6.15-8.86-16-11.78-.27-.46-.41-.72-.41-.72V292s5.93-6.52,29.4-12.67c3.07-.67,6.08-1.38,9-2.15h0C411.74,243.42,411.75,118.5,411.75,118.5l-1-99.5H411A9.5,9.5,0,0,0,420.5,9.5Z"/></svg>
