<svg xmlns="http://www.w3.org/2000/svg" viewBox="0 0 500 380.01"><path d="M308.75 130.38C341.33 99.1 385 52.92 399.15 17.83l1.25-3.1L397 15.1c-42.22 6.68-106.52 46.75-143.49 71.81C226.85 67.89 141.06 8.87 89 .59L85.58 0l1.17 3.3C103.6 45 162 102.26 194 131.57h0L0 285.2v4.55H0a2 2 0 0 0 1.24-.43L197 134.3c10.22 9.29 17.19 15.23 18.26 16.14l5.45 4.35L0 330v50L252.1 179.88 500 377.94V327.82L96.34 6.15C157.27 20.82 257.26 94.61 259.08 96L498.75 287a2 2 0 0 0 1.25.42h0v-4.56L280.28 107.73Zm-47.2-37.61h0c-.47-.35-2-1.5-4.48-3.28 34.64-23.33 92.14-59 132.56-68.77l-109.5 86.89Z"/></svg>
