<svg xmlns="http://www.w3.org/2000/svg" viewBox="0 0 497 378.83"><path d="M0 289.09l195.5-154.81c10.22 9.29 17.19 15.23 18.26 16.14l5.45 4.35L0 328.8v5.11l222.41-176.55 25 20L0 373.72v5.11l250.6-199L497 376.72v-5.12L216.29 147.36c-.26-.23-7.12-6.09-17.58-15.62l-3-2.73C164.92 100.74 108.55 45.59 90.39 5.17c50.19 9.94 131 65 158 84.2l1.82 1.3.12.08 1.58 1.13c3.46 2.48 5.45 4 5.59 4.06l19.71 15.7 1.35 1.08L301 130.64l3.24 2.57L497 286.72v-5.11L307.25 130.36c32.58-31.28 76.22-77.46 90.4-112.55l1.35-3.28-3.49.55C353.26 21.76 289 61.82 252 86.89 225.33 67.86 139.5 8.79 87.42.55L83.93 0l1.32 3.28C102.1 45 160.5 102.23 192.5 131.55L0 284zM392.5 19.72c-15.19 33.78-57.12 78-88.48 108.11l-22.18-17.68 92.28-73.26.21-.49 1.32-3.28-3.49.55-.54.1-93 73.82L260 92.75c-.47-.35-2-1.5-4.48-3.28C291.44 65.27 352 27.75 392.5 19.72z"/><path d="M111.69 19.56l-.53-.09-3.49-.55L109 22.2c.06.16.14.33.21.5l150 119.55L497 331.72v-5.11L261.73 139.13z"/></svg>